<svg aria-hidden="true" style="width:0;height:0;position:absolute;overflow:hidden" xmlns="http://www.w3.org/2000/svg"><defs><symbol id="icon-favicon" viewBox="0 0 40 32"><path d="M16.463 31.448v-5.12l-.132-.839v-8.563c0-1.971-.559-3.487-1.677-4.546-1.089-1.059-2.722-1.589-4.899-1.589-1.501 0-2.928.25-4.281.75s-2.501 1.162-3.443 1.986L.619 11.188c1.177-1 2.589-1.766 4.237-2.295a16.102 16.102 0 0 1 5.208-.839c3.001 0 5.311.75 6.93 2.251 1.648 1.471 2.472 3.722 2.472 6.753v14.389h-3.001zm-7.989.221c-1.736 0-3.252-.28-4.546-.839-1.265-.589-2.236-1.383-2.913-2.383C.338 27.417 0 26.24 0 24.916c0-1.206.28-2.295.839-3.266.589-1 1.53-1.795 2.825-2.383 1.324-.618 3.09-.927 5.297-.927h7.989v2.339H9.049c-2.236 0-3.796.397-4.679 1.192-.853.794-1.28 1.78-1.28 2.957 0 1.324.515 2.383 1.545 3.178s2.472 1.192 4.326 1.192c1.766 0 3.281-.397 4.546-1.192 1.295-.824 2.236-2.001 2.825-3.531l.706 2.163c-.589 1.53-1.618 2.751-3.09 3.663-1.442.912-3.266 1.368-5.473 1.368z"/><path d="M29.44 31.669c-2.413 0-4.531-.5-6.356-1.501-1.824-1.03-3.251-2.428-4.281-4.193-1.03-1.795-1.545-3.84-1.545-6.135s.486-4.326 1.457-6.091c1-1.766 2.354-3.149 4.061-4.149 1.736-1.03 3.678-1.545 5.826-1.545 2.178 0 4.105.5 5.782 1.501 1.707.971 3.046 2.354 4.017 4.149.971 1.766 1.457 3.811 1.457 6.135 0 .147-.015.309-.044.486v.486H19.643v-2.339h18.494l-1.236.927c0-1.677-.368-3.163-1.103-4.458-.706-1.324-1.677-2.354-2.913-3.09s-2.663-1.103-4.281-1.103c-1.589 0-3.016.368-4.281 1.103s-2.251 1.766-2.957 3.09c-.706 1.324-1.059 2.84-1.059 4.546v.486c0 1.766.383 3.325 1.148 4.679a8.571 8.571 0 0 0 3.266 3.134c1.412.736 3.016 1.103 4.811 1.103 1.412 0 2.722-.25 3.928-.75a8.169 8.169 0 0 0 3.178-2.295l1.766 2.03c-1.03 1.236-2.325 2.177-3.884 2.825-1.53.647-3.222.971-5.076.971zM37.296 3.31H21.848V0h15.448v3.31z"/></symbol><symbol id="icon-favicon_mobile" viewBox="0 0 41 32"><path d="M16.241 31.144v-4.916l-.219-.922v-8.384c0-1.785-.527-3.16-1.58-4.126-1.024-.995-2.575-1.492-4.653-1.492-1.375 0-2.721.234-4.038.702-1.317.439-2.429 1.039-3.336 1.8L.659 10.645c1.2-.966 2.634-1.697 4.302-2.195a17.807 17.807 0 0 1 5.311-.79c3.19 0 5.648.775 7.374 2.326s2.59 3.921 2.59 7.111v14.047h-3.994zm-7.637.263c-1.727 0-3.248-.293-4.565-.878-1.288-.585-2.283-1.39-2.985-2.414C.352 27.062 0 25.876 0 24.559c0-1.258.293-2.4.878-3.424.615-1.024 1.595-1.844 2.941-2.458 1.375-.615 3.219-.922 5.531-.922h7.375v3.029H9.526c-2.107 0-3.526.351-4.258 1.053s-1.097 1.551-1.097 2.546c0 1.141.454 2.063 1.361 2.765.907.673 2.166 1.01 3.775 1.01 1.58 0 2.956-.351 4.126-1.053 1.2-.702 2.063-1.727 2.59-3.073l.834 2.897c-.556 1.375-1.536 2.473-2.941 3.292-1.405.79-3.175 1.185-5.311 1.185z"/><path d="M29.718 31.407c-2.487 0-4.682-.512-6.584-1.536-1.873-1.024-3.336-2.429-4.39-4.214-1.024-1.785-1.536-3.834-1.536-6.145s.497-4.36 1.492-6.145c1.024-1.785 2.414-3.175 4.17-4.17 1.785-1.024 3.79-1.536 6.014-1.536 2.253 0 4.243.498 5.97 1.492s3.073 2.4 4.038 4.214c.995 1.785 1.492 3.878 1.492 6.277 0 .176-.015.38-.044.614 0 .234-.015.454-.044.659H20.499v-3.029h17.602l-1.712 1.053c.029-1.492-.278-2.824-.922-3.995s-1.536-2.078-2.678-2.722c-1.112-.673-2.414-1.01-3.907-1.01-1.463 0-2.765.337-3.907 1.01-1.141.644-2.034 1.566-2.678 2.765-.644 1.171-.966 2.517-.966 4.038v.702c0 1.551.351 2.941 1.053 4.17.732 1.2 1.741 2.136 3.029 2.809s2.765 1.01 4.433 1.01c1.375 0 2.619-.234 3.731-.702a8.183 8.183 0 0 0 2.985-2.107l2.327 2.721c-1.053 1.229-2.37 2.166-3.951 2.809-1.551.644-3.292.966-5.224.966zm7.593-28.115H21.947V0h15.364v3.292z"/></symbol><symbol id="icon-tel1" viewBox="0 0 32 32"><path d="m29.276 6.061-3.873-3.869a2.5 2.5 0 0 0-3.55 0l-4.171 4.163a2.509 2.509 0 0 0 0 3.556l3.258 3.261a14.754 14.754 0 0 1-3.142 4.629 14.78 14.78 0 0 1-4.625 3.149l-3.258-3.261a2.5 2.5 0 0 0-1.775-.738 2.482 2.482 0 0 0-1.775.738L2.19 21.852a2.509 2.509 0 0 0 0 3.556l3.869 3.869a4.355 4.355 0 0 0 3.062 1.269c.236 0 .465-.018.698-.058 4.814-.793 9.593-3.356 13.451-7.21 3.855-3.861 6.415-8.639 7.215-13.456a4.335 4.335 0 0 0-1.211-3.76zm-1.367 3.327c-.709 4.287-3.015 8.563-6.487 12.035S13.676 27.2 9.389 27.909a1.711 1.711 0 0 1-1.484-.48l-3.8-3.8 4.029-4.032 4.389 4.396.785-.291A17.504 17.504 0 0 0 23.697 13.31l.291-.785-4.393-4.389 4.029-4.032 3.8 3.8a1.7 1.7 0 0 1 .484 1.483z"/></symbol><symbol id="icon-tel2" viewBox="0 0 32 32"><path d="m29.387 5.978-3.905-3.901a2.521 2.521 0 0 0-3.578 0l-4.206 4.198a2.529 2.529 0 0 0 0 3.586l3.285 3.289a14.853 14.853 0 0 1-3.168 4.667 14.896 14.896 0 0 1-4.664 3.175l-3.285-3.289a2.521 2.521 0 0 0-3.579 0l-4.209 4.198a2.529 2.529 0 0 0 0 3.586l3.901 3.901a4.39 4.39 0 0 0 3.087 1.279c.238 0 .469-.018.704-.059 4.855-.799 9.673-3.384 13.563-7.27 3.887-3.893 6.468-8.711 7.275-13.569a4.37 4.37 0 0 0-1.221-3.791zm-1.379 3.355c-.715 4.322-3.04 8.634-6.541 12.135s-7.81 5.826-12.133 6.541a1.724 1.724 0 0 1-1.496-.484l-3.832-3.831 4.063-4.066 4.426 4.432.792-.293a17.657 17.657 0 0 0 10.476-10.478l.293-.792-4.429-4.425 4.063-4.066 3.832 3.831c.396.396.579.953.488 1.496z"/></symbol><symbol id="icon-tel3" viewBox="0 0 32 32"><path d="m26.332 6.267-3.347-3.344a2.16 2.16 0 0 0-3.068 0l-3.605 3.598a2.167 2.167 0 0 0 0 3.074l2.816 2.819a12.745 12.745 0 0 1-2.715 4 12.75 12.75 0 0 1-3.998 2.721l-2.816-2.819a2.164 2.164 0 0 0-3.068-.001l-3.608 3.598a2.166 2.166 0 0 0-.638 1.537c0 .581.226 1.125.638 1.537l3.344 3.344a3.762 3.762 0 0 0 2.646 1.097c.204 0 .402-.016.603-.05 4.161-.685 8.291-2.9 11.625-6.232 3.331-3.337 5.544-7.466 6.235-11.63a3.743 3.743 0 0 0-1.047-3.249zM25.15 9.143c-.613 3.705-2.605 7.401-5.607 10.402s-6.694 4.993-10.4 5.606a1.477 1.477 0 0 1-1.282-.415l-3.284-3.284 3.482-3.485 3.793 3.799.679-.251a15.128 15.128 0 0 0 8.979-8.982l.251-.679-3.797-3.793 3.482-3.485L24.73 7.86c.339.339.497.817.418 1.282z"/></symbol><symbol id="icon-fb" viewBox="0 0 32 32"><path d="M18.629 30.514h-5.371c-.686 0-1.143-.457-1.143-1.143v-9.486H9.372c-.686 0-1.143-.457-1.143-1.143v-5.371c0-.686.457-1.143 1.143-1.143h2.857V9.371c0-2.057.8-4 2.286-5.486s3.429-2.286 5.486-2.286h4c.686 0 1.143.457 1.143 1.143v5.257c0 .686-.457 1.143-1.143 1.143h-4.114v2.971h4.114c.343 0 .686.114.914.457s.343.686.229 1.029l-1.371 5.371c-.114.457-.571.914-1.143.914h-2.857v9.486c0 .571-.457 1.143-1.143 1.143zm-4.115-2.285H17.6v-9.486c0-.686.457-1.143 1.143-1.143h3.086l.8-3.086h-3.886c-.686 0-1.143-.457-1.143-1.143v-4c0-.686.229-1.257.686-1.714s1.143-.686 1.714-.686h2.857v-3.2H20c-1.486 0-2.857.571-3.886 1.6s-1.6 2.4-1.6 3.886v4c0 .686-.457 1.143-1.143 1.143h-2.857v3.086h2.857c.686 0 1.143.457 1.143 1.143v9.6z"/></symbol><symbol id="icon-insta" viewBox="0 0 32 32"><path d="M22.629 30.514H9.372c-4.343 0-7.771-3.543-7.771-7.771V9.372c0-4.343 3.543-7.771 7.771-7.771h13.371c4.343 0 7.771 3.543 7.771 7.771v13.371c0 4.229-3.543 7.771-7.886 7.771zM9.371 3.771c-3.086 0-5.486 2.514-5.486 5.486v13.371c0 3.086 2.514 5.486 5.486 5.486h13.371c3.086 0 5.486-2.514 5.486-5.486V9.371c0-3.086-2.514-5.486-5.486-5.486H9.371z"/><path d="M16.114 22.4c-.343 0-.686 0-1.029-.114-1.371-.114-2.629-.8-3.657-1.714-.914-.914-1.6-2.171-1.829-3.543s0-2.743.571-3.886c.571-1.257 1.6-2.171 2.857-2.857s2.629-.914 3.886-.686c1.371.229 2.629.8 3.657 1.829s1.6 2.286 1.829 3.657c.229 1.371 0 2.743-.686 3.886a6.89 6.89 0 0 1-2.857 2.857c-.8.343-1.829.571-2.743.571zM16 11.771c-.686 0-1.371.114-1.943.457a4.695 4.695 0 0 0-1.829 1.829c-.343.8-.571 1.714-.343 2.514.114.914.571 1.714 1.143 2.286s1.371 1.029 2.286 1.143c.914.114 1.714 0 2.514-.343s1.371-1.029 1.829-1.829c.457-.8.571-1.714.457-2.514-.114-.914-.571-1.714-1.143-2.4-.686-.686-1.486-1.029-2.4-1.143H16zm7.314-1.942c-.686 0-1.143-.457-1.143-1.143s.457-1.143 1.143-1.143c.686 0 1.143.457 1.143 1.143S24 9.829 23.314 9.829z"/><symbol id="icon-burger" viewBox="0 0 32 32"><path d="M4 5.333h24V8H4V5.333zm8 9.334h16v2.667H12v-2.667zM4 24h24v2.667H4V24z"/></symbol><symbol id="icon-x" viewBox="0 0 32 32"><path d="M8 25.333c-.4 0-.667-.133-.933-.4a1.29 1.29 0 0 1 0-1.867l16-16c.533-.533 1.333-.533 1.867 0s.533 1.333 0 1.867l-16 16c-.267.267-.533.4-.933.4z"/><path d="M24 25.333c-.4 0-.667-.133-.933-.4l-16-16c-.533-.533-.533-1.333 0-1.867s1.333-.533 1.867 0l16 16a1.29 1.29 0 0 1 0 1.867c-.267.267-.533.4-.933.4z"/></symbol></symbol><symbol id="icon-arrow" viewBox="0 0 47 32"><path d="M.418 30.357a.89.89 0 0 0 .942 1.508l-.942-1.508zM46.984 3.049a.89.89 0 0 0-.666-1.066l-7.795-1.8a.89.89 0 0 0-.4 1.732l6.929 1.6-1.6 6.929a.889.889 0 1 0 1.732.4l1.8-7.795zM1.36 31.865 46.589 3.603l-.942-1.508L.418 30.357l.942 1.508z"/></symbol><symbol id="icon-line" viewBox="0 0 5856 32"><path d="M0 0h5856v32H0V0z"/></symbol><symbol id="icon-left-arrow" viewBox="0 0 32 32"><path d="M7.703 17.067 6.5 16.249l22.877-.001v-.64l-22.733.001 1.133-.651-.319-.555-2.608 1.498 2.493 1.695.36-.529z"/></symbol><symbol id="icon-right-arrow" viewBox="0 0 32 32"><path d="m21.674 14.79 1.203.818L0 15.609v.64l22.733-.001-1.133.651.319.555 2.608-1.498-2.493-1.695-.36.529z"/></symbol></defs></svg>